<?xml version="1.0" standalone="no"?>
<!DOCTYPE svg PUBLIC "-//W3C//DTD SVG 20010904//EN"
 "http://www.w3.org/TR/2001/REC-SVG-20010904/DTD/svg10.dtd">
<svg version="1.0" xmlns="http://www.w3.org/2000/svg"
 width="700.000000pt" height="700.000000pt" viewBox="0 0 700.000000 700.000000"
 preserveAspectRatio="xMidYMid meet">
<metadata>
Created by potrace 1.11, written by Peter Selinger 2001-2013
</metadata>
<g transform="translate(0.000000,700.000000) scale(0.100000,-0.100000)"
fill="#000000" stroke="none">
<path d="M3188 6995 c-2 -1 -52 -5 -113 -9 -143 -9 -405 -36 -495 -51 -14 -2
-45 -7 -70 -10 -36 -5 -241 -42 -335 -61 -78 -15 -393 -100 -500 -135 -570
-183 -751 -310 -879 -616 -20 -48 -41 -97 -46 -108 -27 -61 -110 -311 -149
-445 -30 -103 -95 -368 -105 -423 -3 -15 -7 -35 -10 -45 -3 -9 -7 -34 -10 -55
-4 -21 -17 -102 -30 -180 -14 -78 -27 -167 -31 -197 -3 -30 -8 -71 -10 -90
-51 -396 -63 -919 -30 -1400 2 -38 9 -115 20 -230 2 -14 5 -43 9 -65 3 -22 8
-62 11 -90 3 -27 7 -61 10 -75 2 -14 7 -43 10 -65 30 -218 139 -708 182 -825
3 -8 7 -19 8 -25 27 -107 158 -454 207 -549 55 -104 129 -192 239 -281 31 -25
187 -104 264 -134 33 -12 69 -27 80 -32 72 -32 414 -144 475 -155 14 -3 48
-12 75 -19 52 -15 258 -62 310 -70 17 -3 53 -10 80 -15 100 -19 111 -21 163
-27 52 -6 54 -7 94 -67 56 -83 182 -206 269 -262 199 -129 408 -187 649 -179
146 5 176 9 289 41 233 68 446 217 570 402 35 51 47 62 71 63 17 1 33 2 38 3
4 1 30 5 57 10 396 60 986 235 1257 372 154 78 283 205 356 349 43 87 133 320
182 470 65 204 169 627 186 755 2 19 6 42 9 50 2 8 7 35 10 60 3 25 12 86 20
135 8 50 17 122 21 160 3 39 8 77 9 85 19 106 38 491 39 760 0 193 -11 491
-19 542 -2 13 -6 59 -10 103 -7 88 -11 137 -20 205 -7 54 -36 267 -41 295 -9
57 -25 143 -29 165 -3 14 -12 57 -20 95 -64 317 -156 626 -267 905 -64 160
-98 224 -163 302 -53 65 -148 146 -219 187 -151 86 -724 284 -950 327 -11 2
-75 15 -141 28 -121 25 -262 50 -345 61 -25 3 -56 8 -70 10 -14 2 -50 7 -80
10 -30 3 -71 8 -90 10 -19 2 -69 7 -110 10 -41 4 -95 9 -120 11 -49 6 -756 14
-762 9z m662 -279 c69 -4 143 -9 165 -11 22 -2 69 -7 105 -10 116 -11 151 -16
325 -41 55 -8 145 -23 200 -34 55 -11 109 -22 120 -24 11 -2 38 -9 60 -15 22
-5 54 -12 70 -15 33 -6 341 -92 365 -103 8 -3 20 -7 25 -9 93 -23 415 -157
471 -195 65 -44 141 -135 178 -212 105 -219 264 -740 311 -1017 3 -19 8 -42
10 -50 5 -19 14 -66 20 -110 3 -19 7 -46 10 -60 3 -14 7 -47 10 -75 3 -27 8
-57 10 -65 3 -8 7 -40 10 -70 3 -30 7 -66 10 -80 2 -14 7 -59 10 -100 4 -41 9
-86 10 -100 27 -214 27 -984 0 -1205 -2 -16 -7 -64 -11 -105 -3 -41 -8 -82 -9
-90 -2 -8 -6 -44 -10 -80 -4 -36 -8 -72 -10 -80 -2 -8 -8 -51 -15 -95 -7 -44
-14 -89 -16 -100 -3 -11 -7 -36 -10 -55 -23 -158 -114 -521 -180 -724 -133
-405 -210 -541 -353 -622 -114 -64 -404 -174 -631 -238 -209 -60 -541 -132
-565 -122 -6 2 -11 16 -13 31 -10 120 -181 163 -246 62 -8 -12 -21 -54 -29
-93 -25 -118 -84 -222 -180 -315 -163 -159 -441 -242 -692 -206 -239 33 -455
171 -561 356 -26 47 -64 153 -64 181 0 36 -27 86 -58 108 -87 62 -211 5 -214
-99 -1 -16 -6 -29 -13 -29 -10 0 -146 24 -250 45 -201 39 -602 165 -810 254
-264 113 -320 189 -472 636 -68 201 -145 494 -178 675 -4 19 -8 40 -9 45 -2 6
-7 33 -11 60 -5 28 -10 52 -10 55 -1 3 -5 28 -9 55 -4 28 -11 73 -16 100 -5
28 -12 75 -15 105 -3 30 -7 66 -9 80 -3 14 -7 60 -11 102 -3 43 -8 90 -10 105
-26 209 -27 1060 0 1202 1 9 6 52 9 96 4 44 9 91 11 105 3 14 7 45 9 70 5 40
14 107 31 225 5 32 66 343 80 405 38 173 155 556 210 685 7 17 25 59 39 95 76
181 170 264 421 364 217 87 511 176 765 230 150 32 146 32 330 60 19 3 44 7
55 10 11 2 49 7 85 11 36 4 73 9 83 10 9 2 56 7 105 10 48 4 95 9 106 11 10 2
87 6 170 10 83 3 152 7 153 8 5 5 416 -2 533 -8z"/>
<path d="M2187 5004 c-1 -1 -51 -4 -112 -8 -60 -3 -123 -8 -140 -11 -236 -34
-323 -53 -464 -101 -87 -30 -113 -46 -138 -82 -17 -27 -19 -52 -22 -302 l-1
-45 -158 0 c-146 0 -159 -1 -188 -22 -87 -62 -78 -185 15 -232 30 -15 60 -18
184 -17 124 1 147 -1 148 -14 15 -265 109 -487 278 -657 133 -133 329 -240
491 -267 19 -3 46 -8 60 -11 92 -20 296 -2 412 36 331 108 560 352 649 694 17
67 21 116 24 307 4 266 12 303 81 373 53 54 100 76 179 82 111 8 211 -52 260
-154 26 -56 27 -61 30 -288 3 -280 20 -365 102 -530 121 -244 377 -449 624
-501 103 -21 135 -25 219 -25 119 -1 173 7 280 38 197 57 370 178 505 356 90
118 169 332 178 483 3 36 9 69 15 73 5 3 70 5 144 5 97 -1 143 3 171 13 98 39
111 173 23 236 -29 20 -42 22 -188 22 -151 0 -158 1 -159 20 0 11 0 74 0 140
0 132 -10 183 -44 215 -42 40 -340 126 -500 145 -27 3 -66 8 -85 10 -190 25
-423 24 -670 -1 -138 -14 -376 -68 -483 -109 -37 -15 -38 -14 -84 21 -185 141
-462 141 -647 0 l-45 -35 -68 24 c-105 37 -243 69 -388 90 -22 4 -51 8 -65 10
-69 10 -414 26 -423 19z"/>
<path d="M3199 2946 c-2 -2 -47 -7 -99 -10 -102 -8 -125 -10 -210 -20 -223
-28 -509 -91 -558 -122 -13 -8 -32 -29 -43 -47 -18 -29 -20 -43 -15 -137 11
-216 76 -415 193 -597 170 -263 439 -452 752 -531 93 -23 127 -26 271 -27 171
0 254 12 388 54 122 39 292 130 387 208 137 112 276 288 345 438 18 39 36 77
40 86 29 59 68 240 76 352 12 148 -14 194 -128 228 -39 11 -78 22 -87 24 -9 2
-63 13 -119 24 -114 24 -271 47 -378 57 -38 3 -80 8 -94 11 -28 6 -715 14
-721 9z m686 -280 c17 -2 59 -7 95 -10 89 -9 119 -13 245 -32 17 -3 72 -14
124 -24 52 -11 96 -20 98 -20 8 0 -7 -84 -28 -160 -11 -41 -36 -108 -55 -148
l-35 -73 -37 5 c-20 3 -80 12 -132 20 -215 32 -345 41 -650 41 -307 0 -547
-16 -725 -49 -111 -20 -113 -20 -133 21 -32 62 -68 156 -77 199 -5 21 -9 44
-11 49 -1 6 -5 28 -9 51 l-7 41 43 11 c24 6 58 13 74 16 17 3 72 12 124 21 52
9 115 18 140 20 25 3 60 7 76 10 17 2 75 7 130 11 55 3 102 8 103 9 5 5 613
-4 647 -9z"/>
</g>
</svg>
